<?xml version="1.0" encoding="UTF-8"?>
<svg xmlns="http://www.w3.org/2000/svg" xmlns:xlink="http://www.w3.org/1999/xlink" width="517.95pt" height="208.91pt" viewBox="0 0 517.95 208.91" version="1.1">
<defs>
<clipPath id="clip1">
  <path d="M 417 0 L 517.949219 0 L 517.949219 185 L 417 185 Z M 417 0 "/>
</clipPath>
<clipPath id="clip2">
  <path d="M 356 96 L 450 96 L 450 208.910156 L 356 208.910156 Z M 356 96 "/>
</clipPath>
<clipPath id="clip3">
  <path d="M 1 174 L 328 174 L 328 208.910156 L 1 208.910156 Z M 1 174 "/>
</clipPath>
</defs>
<g id="surface1">
<path style=" stroke:none;fill-rule:nonzero;fill:rgb(41.19873%,68.199158%,26.699829%);fill-opacity:1;" d="M 410.566406 181.109375 L 420.695313 194.8125 C 420.695313 194.8125 404.292969 202.855469 342.9375 200.472656 L 342.644531 198.984375 C 342.644531 198.984375 395.957031 187.367188 410.566406 181.109375 "/>
<g clip-path="url(#clip1)" clip-rule="nonzero">
<path style=" stroke:none;fill-rule:nonzero;fill:rgb(41.19873%,68.199158%,26.699829%);fill-opacity:1;" d="M 503.800781 105.746094 C 502.90625 110.496094 488.910156 133.441406 451.082031 161.734375 C 451.082031 161.734375 450.183594 157.273438 451.386719 148.335938 C 452.558594 139.417969 468.957031 119.742188 501.429688 101.867188 C 501.429688 101.867188 504.691406 100.980469 503.800781 105.746094 Z M 515.726563 73.863281 C 478.789063 83.40625 455.847656 111.417969 455.847656 111.417969 C 469.246094 35.152344 431.109375 0.00390625 431.109375 0.00390625 C 413.550781 31.566406 417.722656 88.769531 417.722656 88.769531 L 421.289063 88.769531 C 426.945313 41.113281 431.417969 36.621094 431.417969 36.621094 C 452.277344 50.921875 448.703125 125.398438 448.703125 125.398438 C 439.765625 143.285156 442.742188 166.820313 442.742188 166.820313 L 437.070313 170.390625 L 448.703125 184.691406 C 536.867188 130.78125 515.726563 73.863281 515.726563 73.863281 "/>
</g>
<g clip-path="url(#clip2)" clip-rule="nonzero">
<path style=" stroke:none;fill-rule:nonzero;fill:rgb(9.799194%,43.099976%,71.798706%);fill-opacity:1;" d="M 396.027344 161.449219 C 381.996094 161.449219 370.613281 150.058594 370.613281 136.015625 C 370.613281 121.972656 381.996094 110.601563 396.027344 110.601563 C 410.082031 110.601563 421.460938 121.972656 421.460938 136.015625 C 421.460938 150.058594 410.082031 161.449219 396.027344 161.449219 Z M 447.691406 194.414063 L 425.542969 162.101563 C 431.699219 155.148438 435.46875 146.027344 435.46875 136.015625 C 435.46875 114.246094 417.808594 96.59375 396.027344 96.59375 C 374.261719 96.59375 356.621094 114.246094 356.621094 136.015625 C 356.621094 157.789063 374.261719 175.441406 396.027344 175.441406 C 401.628906 175.441406 406.945313 174.28125 411.753906 172.175781 C 416.988281 179.710938 430.660156 199.363281 434.402344 204.644531 C 437.855469 209.566406 441.851563 210.394531 446.898438 206.261719 C 453.230469 201.089844 447.691406 194.414063 447.691406 194.414063 "/>
</g>
<path style=" stroke:none;fill-rule:nonzero;fill:rgb(9.799194%,43.099976%,71.798706%);fill-opacity:1;" d="M 200.175781 121.730469 L 200.175781 113.332031 L 209.917969 113.332031 L 209.917969 121.730469 L 200.175781 121.730469 "/>
<path style=" stroke:none;fill-rule:nonzero;fill:rgb(9.799194%,43.099976%,71.798706%);fill-opacity:1;" d="M 200.175781 161.792969 L 200.175781 125.6875 L 209.917969 125.6875 L 209.917969 161.792969 L 200.175781 161.792969 "/>
<path style=" stroke:none;fill-rule:nonzero;fill:rgb(9.799194%,43.099976%,71.798706%);fill-opacity:1;" d="M 93.421875 121.730469 L 93.421875 113.332031 L 103.175781 113.332031 L 103.175781 121.730469 L 93.421875 121.730469 "/>
<path style=" stroke:none;fill-rule:nonzero;fill:rgb(9.799194%,43.099976%,71.798706%);fill-opacity:1;" d="M 93.421875 161.792969 L 93.421875 125.6875 L 103.175781 125.6875 L 103.175781 161.792969 L 93.421875 161.792969 "/>
<path style=" stroke:none;fill-rule:nonzero;fill:rgb(9.799194%,43.099976%,71.798706%);fill-opacity:1;" d="M 49.789063 113.332031 L 49.789063 161.792969 L 59.550781 161.792969 L 59.550781 113.332031 L 49.789063 113.332031 "/>
<path style=" stroke:none;fill-rule:nonzero;fill:rgb(9.799194%,43.099976%,71.798706%);fill-opacity:1;" d="M 76.003906 133.878906 L 85.871094 133.878906 L 85.871094 125.46875 L 76.003906 125.46875 L 76.003906 113.332031 L 66.25 113.332031 L 66.25 152.667969 C 66.25 152.667969 65.714844 162.109375 77.371094 161.792969 L 85.609375 161.792969 L 85.609375 153.386719 L 77.371094 153.386719 C 75.902344 153.378906 76.003906 152.667969 76.003906 152.667969 L 76.003906 133.878906 "/>
<path style=" stroke:none;fill-rule:nonzero;fill:rgb(9.799194%,43.099976%,71.798706%);fill-opacity:1;" d="M 147.277344 134.816406 C 147.277344 134.816406 147.800781 125.375 136.132813 125.6875 L 122.878906 125.6875 L 122.878906 134.101563 L 136.132813 134.101563 C 137.617188 134.105469 137.523438 134.816406 137.523438 134.816406 L 137.523438 152.660156 C 137.523438 152.660156 137.617188 153.359375 136.132813 153.371094 L 118.84375 153.371094 L 118.84375 113.332031 L 109.074219 113.332031 L 109.074219 161.792969 L 118.84375 161.792969 L 118.84375 161.773438 L 136.132813 161.773438 C 147.800781 162.101563 147.277344 152.660156 147.277344 152.660156 L 147.277344 134.816406 "/>
<path style=" stroke:none;fill-rule:nonzero;fill:rgb(9.799194%,43.099976%,71.798706%);fill-opacity:1;" d="M 192.171875 134.816406 C 192.171875 134.816406 192.6875 125.375 181.03125 125.6875 L 167.753906 125.6875 L 167.753906 134.101563 L 181.03125 134.101563 C 182.523438 134.105469 182.414063 134.816406 182.414063 134.816406 L 182.414063 152.660156 C 182.414063 152.660156 182.523438 153.359375 181.03125 153.371094 L 163.738281 153.371094 L 163.738281 113.332031 L 153.980469 113.332031 L 153.980469 161.792969 L 163.738281 161.792969 L 163.738281 161.773438 L 181.03125 161.773438 C 192.6875 162.101563 192.171875 152.660156 192.171875 152.660156 L 192.171875 134.816406 "/>
<path style=" stroke:none;fill-rule:nonzero;fill:rgb(9.799194%,43.099976%,71.798706%);fill-opacity:1;" d="M 17.40625 146.308594 L 22.90625 124.648438 L 28.40625 146.308594 Z M 30.644531 113.332031 L 15.136719 113.332031 L 1.785156 161.792969 L 13.136719 161.792969 L 15.03125 154.921875 L 30.78125 154.921875 L 32.664063 161.792969 L 44.003906 161.792969 L 30.644531 113.332031 "/>
<path style=" stroke:none;fill-rule:nonzero;fill:rgb(9.799194%,43.099976%,71.798706%);fill-opacity:1;" d="M 224.449219 161.601563 L 216.476563 161.601563 L 216.476563 153.019531 L 224.449219 153.019531 L 224.449219 161.601563 "/>
<path style=" stroke:none;fill-rule:nonzero;fill:rgb(9.799194%,43.099976%,71.798706%);fill-opacity:1;" d="M 253.203125 157.167969 C 253.203125 160.117188 251.714844 161.601563 248.714844 161.601563 L 234.636719 161.601563 C 231.578125 161.601563 230.054688 160.117188 230.054688 157.167969 L 230.054688 130.21875 C 230.054688 127.265625 231.578125 125.785156 234.636719 125.785156 L 248.714844 125.785156 C 251.714844 125.785156 253.203125 127.265625 253.203125 130.21875 L 253.203125 138.730469 L 245.304688 138.730469 L 245.304688 132.5625 L 238.023438 132.5625 L 238.023438 154.855469 L 245.304688 154.855469 L 245.304688 148.015625 L 253.203125 148.015625 L 253.203125 157.167969 "/>
<path style=" stroke:none;fill-rule:nonzero;fill:rgb(9.799194%,43.099976%,71.798706%);fill-opacity:1;" d="M 274.695313 154.855469 L 274.695313 132.5625 L 267 132.5625 L 267 154.855469 Z M 282.640625 157.167969 C 282.640625 160.117188 281.136719 161.601563 278.117188 161.601563 L 263.597656 161.601563 C 260.554688 161.601563 259.03125 160.117188 259.03125 157.167969 L 259.03125 130.21875 C 259.03125 127.265625 260.554688 125.785156 263.597656 125.785156 L 278.117188 125.785156 C 281.136719 125.785156 282.640625 127.265625 282.640625 130.21875 L 282.640625 157.167969 "/>
<path style=" stroke:none;fill-rule:nonzero;fill:rgb(9.799194%,43.099976%,71.798706%);fill-opacity:1;" d="M 327.980469 161.601563 L 319.9375 161.601563 L 319.9375 132.5625 L 312.3125 132.707031 L 312.3125 161.601563 L 304.222656 161.601563 L 304.222656 132.5625 L 296.605469 132.707031 L 296.605469 161.601563 L 288.488281 161.601563 L 288.488281 125.785156 L 296.605469 125.785156 L 296.605469 127.101563 C 298.484375 126.800781 300.367188 126.484375 302.234375 126.183594 C 304.539063 125.820313 306.433594 125.648438 307.941406 125.648438 C 309.8125 125.648438 311.023438 126.183594 311.566406 127.25 C 313.554688 126.9375 315.53125 126.621094 317.523438 126.285156 C 320.148438 125.859375 322.144531 125.648438 323.554688 125.648438 C 326.503906 125.648438 327.980469 127.101563 327.980469 130.007813 L 327.980469 161.601563 "/>
<path style=" stroke:none;fill-rule:nonzero;fill:rgb(9.799194%,43.099976%,71.798706%);fill-opacity:1;" d="M 245.570313 41.800781 L 245.570313 75.226563 L 168.769531 75.222656 L 168.769531 54.558594 C 175.761719 41.839844 187.953125 39.410156 187.953125 39.410156 L 244.710938 39.410156 C 245.835938 39.539063 245.570313 41.800781 245.570313 41.800781 Z M 283.324219 75.238281 L 282.402344 75.238281 L 257.664063 75.226563 L 257.664063 41.046875 C 257.664063 41.046875 257.53125 37.648438 257.53125 31.882813 C 257.53125 26.117188 252.035156 25.832031 252.035156 25.832031 L 189.703125 25.832031 C 189.703125 25.832031 181.054688 26.769531 168.769531 40.296875 L 168.769531 0.00390625 L 156.683594 0.00390625 L 156.683594 75.222656 L 139.132813 75.207031 L 139.132813 35.621094 L 127.046875 35.621094 L 127.046875 75.207031 L 98.277344 75.203125 L 96.085938 74.121094 L 96.085938 32.328125 C 96.085938 32.328125 96.109375 27.726563 91.113281 27.726563 C 86.128906 27.726563 69.898438 27.726563 69.898438 27.726563 C 69.898438 27.726563 52.089844 25.046875 52.089844 49.96875 L 52.089844 75.160156 L 25.570313 75.160156 C 25.570313 75.160156 7.214844 73.949219 16.589844 45.867188 L 5.304688 38.898438 C 5.304688 38.898438 -8.972656 79.554688 20.027344 86.785156 C 21.589844 87.175781 23.175781 87.242188 25.570313 87.257813 L 52.089844 87.257813 C 57.101563 87.257813 60.914063 87.75 62.742188 85.386719 C 64.308594 83.574219 64.179688 74.910156 64.179688 74.910156 L 64.179688 51.496094 C 64.179688 39.988281 70.34375 39.378906 75.933594 39.257813 C 79.902344 39.1875 83.867188 39.644531 83.867188 39.644531 L 83.867188 76.488281 C 83.867188 76.488281 82.972656 87.257813 90.683594 87.257813 L 90.851563 87.3125 L 288.320313 87.3125 C 288.320313 87.3125 291.144531 87.519531 293.316406 86.175781 C 295.46875 84.855469 295.414063 82.085938 295.414063 82.085938 L 295.414063 0.00390625 L 283.324219 0.00390625 Z M 315.882813 0.00390625 L 315.882813 86.894531 L 327.980469 86.894531 L 327.980469 0.00390625 Z M 18.472656 101.777344 L 34.261719 101.777344 L 34.261719 89.769531 L 18.472656 89.769531 Z M 103.480469 101.777344 L 119.273438 101.777344 L 119.273438 89.769531 L 103.480469 89.769531 Z M 40.246094 101.777344 L 56.027344 101.777344 L 56.027344 89.769531 L 40.246094 89.769531 L 40.246094 101.777344 "/>
<g clip-path="url(#clip3)" clip-rule="nonzero">
<path style=" stroke:none;fill-rule:nonzero;fill:rgb(38.798523%,39.199829%,39.99939%);fill-opacity:1;" d="M 324.132813 199.320313 L 320.019531 199.320313 L 320.019531 194.949219 L 321.355469 194.949219 C 321.996094 194.949219 322.628906 195.210938 323.21875 195.757813 C 323.824219 196.296875 324.132813 196.898438 324.132813 197.558594 Z M 325.914063 192.503906 C 324.636719 191.675781 323.421875 191.257813 322.289063 191.257813 L 316.160156 191.257813 L 316.160156 197.171875 L 305.183594 197.171875 C 304.539063 197.171875 303.914063 196.855469 303.335938 196.226563 C 302.78125 195.605469 302.480469 194.957031 302.480469 194.304688 C 302.480469 192.273438 304.242188 191.257813 307.75 191.257813 C 308.136719 191.257813 308.609375 191.277344 309.222656 191.296875 C 309.8125 191.324219 310.207031 191.339844 310.367188 191.339844 L 310.367188 187.398438 L 305.789063 187.398438 C 303.78125 187.398438 302.140625 187.867188 300.800781 188.808594 C 299.359375 189.898438 298.628906 191.414063 298.628906 193.355469 C 298.628906 194.875 299.078125 196.136719 299.996094 197.171875 L 293.273438 197.171875 L 293.273438 191.257813 L 289.332031 191.257813 L 289.332031 202.441406 C 289.332031 203.847656 288.976563 204.6875 288.304688 204.96875 C 288.019531 205.109375 287 205.179688 285.230469 205.179688 L 285.230469 208.910156 L 288.527344 208.910156 C 290.558594 208.910156 291.914063 208.019531 292.640625 206.25 C 293.0625 205.167969 293.273438 203.464844 293.273438 201.109375 L 316.160156 201.109375 C 316.09375 202.542969 316.578125 203.25 317.570313 203.25 L 327.980469 203.25 L 327.980469 195.492188 C 327.980469 194.414063 327.300781 193.410156 325.914063 192.503906 Z M 58.949219 191.257813 L 58.949219 196.785156 C 58.949219 197.101563 58.777344 197.265625 58.464844 197.265625 L 54.570313 197.265625 L 54.570313 193.527344 C 54.570313 192.957031 54.832031 192.4375 55.382813 191.976563 C 55.925781 191.484375 56.472656 191.257813 57.011719 191.257813 Z M 41.539063 197.214844 L 26.460938 197.214844 L 26.460938 193.921875 C 26.460938 193.347656 26.84375 192.753906 27.601563 192.121094 C 28.351563 191.484375 29.015625 191.167969 29.585938 191.167969 L 38.894531 191.167969 C 39.425781 191.167969 40 191.441406 40.617188 191.976563 C 41.242188 192.492188 41.539063 193.027344 41.539063 193.566406 Z M 53.035156 189.097656 C 51.796875 190.246094 51.066406 191.519531 50.84375 192.894531 C 50.757813 193.429688 50.710938 194.859375 50.710938 197.171875 L 45.523438 197.171875 L 45.523438 193.824219 C 45.523438 192.242188 44.78125 190.730469 43.300781 189.324219 C 41.824219 187.929688 40.257813 187.234375 38.632813 187.234375 L 32.117188 187.234375 C 29.722656 187.234375 27.84375 188.0625 26.511719 189.710938 L 26.511719 187.234375 L 22.5625 187.234375 L 22.5625 197.265625 L 21.40625 197.265625 L 21.40625 197.171875 L 16.265625 197.171875 L 16.265625 178.917969 L 12.324219 178.917969 L 12.324219 201.03125 L 5.726563 201.03125 L 5.726563 191.257813 L 1.785156 191.257813 L 1.785156 202.1875 C 1.785156 202.816406 1.9375 203.394531 2.253906 203.945313 C 2.625 204.570313 3.109375 204.878906 3.710938 204.878906 L 14.679688 204.878906 C 15.390625 204.878906 15.851563 204.375 16.050781 203.390625 C 16.136719 202.644531 16.203125 201.882813 16.265625 201.109375 L 61.210938 201.109375 C 61.519531 201.109375 61.867188 200.957031 62.246094 200.625 C 62.609375 200.289063 62.804688 199.953125 62.804688 199.613281 L 62.804688 187.359375 L 56.929688 187.359375 C 55.566406 187.359375 54.257813 187.929688 53.035156 189.097656 Z M 67.140625 175.101563 C 66.875 175.390625 66.75 175.710938 66.75 176.09375 C 66.75 176.183594 66.773438 176.332031 66.84375 176.570313 C 66.910156 176.792969 66.949219 176.96875 66.949219 177.074219 L 66.128906 177.074219 L 66.128906 178.101563 L 69.910156 178.101563 C 69.992188 177.984375 70.046875 177.898438 70.078125 177.808594 L 70.078125 177.074219 L 69.910156 177.074219 C 68.449219 177.039063 67.71875 176.816406 67.71875 176.394531 C 67.71875 175.878906 68.207031 175.617188 69.175781 175.617188 L 70.078125 175.617188 L 70.078125 174.683594 L 68.105469 174.683594 C 67.742188 174.683594 67.421875 174.820313 67.140625 175.101563 Z M 66.128906 201.109375 L 69.992188 201.109375 L 69.992188 178.882813 L 66.128906 178.882813 Z M 233.851563 201.109375 L 237.707031 201.109375 L 237.707031 178.882813 L 233.851563 178.882813 Z M 145.328125 197.265625 L 130.277344 197.265625 L 130.277344 193.957031 C 130.277344 193.308594 130.726563 192.675781 131.621094 192.074219 C 132.40625 191.503906 133.167969 191.210938 133.878906 191.210938 L 142.097656 191.210938 C 142.847656 191.210938 143.570313 191.445313 144.269531 191.898438 C 144.96875 192.355469 145.328125 192.941406 145.328125 193.65625 Z M 91.710938 197.265625 L 85.84375 197.265625 C 85.394531 197.265625 84.988281 197.089844 84.667969 196.765625 C 84.339844 196.4375 84.164063 196.039063 84.164063 195.578125 C 84.164063 195.15625 84.375 194.757813 84.738281 194.386719 C 85.101563 194.019531 85.5 193.824219 85.941406 193.824219 L 91.710938 193.824219 Z M 156.710938 197.171875 L 149.308594 197.171875 C 149.308594 194.5625 149.097656 192.722656 148.664063 191.601563 C 148.003906 189.828125 146.65625 188.5625 144.648438 187.78125 C 143.902344 187.511719 143.414063 187.359375 143.234375 187.359375 L 134.90625 187.359375 C 134.257813 187.359375 133.421875 187.617188 132.429688 188.148438 C 131.425781 188.679688 130.726563 189.214844 130.320313 189.757813 L 130.320313 187.359375 L 126.429688 187.359375 L 126.429688 197.265625 L 124.917969 197.265625 L 124.917969 197.171875 L 120.382813 197.171875 C 120.382813 194.28125 120.082031 192.148438 119.484375 190.738281 C 118.574219 188.578125 116.792969 187.480469 114.179688 187.480469 L 105.039063 187.480469 L 105.039063 191.339844 C 105.328125 191.339844 106.117188 191.296875 107.371094 191.191406 C 108.644531 191.097656 109.6875 191.050781 110.5 191.050781 C 114.519531 191.050781 116.523438 192.195313 116.523438 194.476563 L 116.523438 197.171875 L 96.007813 197.171875 L 96.007813 187.480469 L 91.710938 187.480469 L 91.710938 189.796875 C 91.425781 189.796875 90.929688 189.796875 90.226563 189.757813 L 88.585938 189.757813 C 85.941406 189.757813 83.9375 190.078125 82.589844 190.707031 C 80.675781 191.59375 79.726563 193.1875 79.726563 195.492188 C 79.726563 196.84375 80.257813 198.109375 81.347656 199.320313 C 82.425781 200.507813 83.644531 201.109375 84.988281 201.109375 L 91.207031 201.109375 C 91.320313 200.921875 91.503906 200.679688 91.761719 200.425781 L 92.277344 201.109375 L 160.40625 201.109375 L 160.40625 178.882813 L 156.710938 178.882813 Z M 226.65625 191.257813 L 226.65625 196.785156 C 226.65625 197.101563 226.488281 197.265625 226.167969 197.265625 L 222.28125 197.265625 L 222.28125 193.527344 C 222.28125 192.957031 222.554688 192.4375 223.105469 191.976563 C 223.621094 191.484375 224.171875 191.257813 224.71875 191.257813 Z M 209.253906 197.214844 L 194.164063 197.214844 L 194.164063 193.921875 C 194.164063 193.347656 194.539063 192.753906 195.296875 192.121094 C 196.058594 191.484375 196.734375 191.167969 197.300781 191.167969 L 206.59375 191.167969 C 207.144531 191.167969 207.730469 191.441406 208.332031 191.976563 C 208.941406 192.492188 209.253906 193.027344 209.253906 193.566406 Z M 220.75 189.097656 C 219.511719 190.246094 218.785156 191.519531 218.554688 192.894531 C 218.457031 193.429688 218.425781 194.859375 218.425781 197.171875 L 213.230469 197.171875 L 213.230469 193.824219 C 213.230469 192.242188 212.488281 190.730469 211.011719 189.324219 C 209.519531 187.929688 207.964844 187.234375 206.339844 187.234375 L 199.820313 187.234375 C 197.421875 187.234375 195.554688 188.0625 194.214844 189.710938 L 194.214844 187.234375 L 190.273438 187.234375 L 190.273438 197.265625 L 189.109375 197.265625 L 189.109375 197.171875 L 183.964844 197.171875 L 183.964844 178.917969 L 180.015625 178.917969 L 180.015625 201.03125 L 173.4375 201.03125 L 173.4375 191.257813 L 169.480469 191.257813 L 169.480469 202.1875 C 169.480469 202.816406 169.640625 203.394531 169.957031 203.945313 C 170.332031 204.570313 170.804688 204.878906 171.433594 204.878906 L 182.390625 204.878906 C 183.09375 204.878906 183.5625 204.375 183.753906 203.390625 C 183.839844 202.644531 183.914063 201.882813 183.964844 201.109375 L 228.917969 201.109375 C 229.230469 201.109375 229.5625 200.957031 229.945313 200.625 C 230.3125 200.289063 230.496094 199.953125 230.496094 199.613281 L 230.496094 187.359375 L 224.632813 187.359375 C 223.265625 187.359375 221.96875 187.929688 220.75 189.097656 Z M 278.101563 191.257813 L 278.101563 196.785156 C 278.101563 197.101563 277.941406 197.265625 277.644531 197.265625 L 273.738281 197.265625 L 273.738281 193.527344 C 273.738281 192.957031 274.003906 192.4375 274.546875 191.976563 C 275.089844 191.484375 275.636719 191.257813 276.183594 191.257813 Z M 259.4375 197.265625 L 253.550781 197.265625 C 253.09375 197.265625 252.707031 197.089844 252.386719 196.765625 C 252.058594 196.4375 251.898438 196.039063 251.898438 195.578125 C 251.898438 195.15625 252.058594 194.757813 252.445313 194.386719 C 252.816406 194.019531 253.214844 193.824219 253.636719 193.824219 L 259.4375 193.824219 Z M 272.195313 189.097656 C 270.960938 190.246094 270.242188 191.519531 270.007813 192.894531 C 269.917969 193.429688 269.875 194.859375 269.875 197.171875 L 263.714844 197.171875 L 263.714844 187.480469 L 259.4375 187.480469 L 259.4375 189.796875 C 259.152344 189.796875 258.644531 189.796875 257.933594 189.757813 L 256.300781 189.757813 C 253.636719 189.757813 251.644531 190.078125 250.300781 190.707031 C 248.382813 191.59375 247.429688 193.1875 247.429688 195.492188 C 247.429688 196.84375 247.96875 198.109375 249.0625 199.320313 C 250.144531 200.507813 251.351563 201.109375 252.695313 201.109375 L 258.917969 201.109375 C 259.03125 200.921875 259.210938 200.679688 259.464844 200.425781 L 259.992188 201.109375 L 280.382813 201.109375 C 280.691406 201.109375 281.03125 200.957031 281.398438 200.625 C 281.773438 200.289063 281.960938 199.953125 281.960938 199.613281 L 281.960938 187.359375 L 276.09375 187.359375 C 274.710938 187.359375 273.421875 187.929688 272.195313 189.097656 Z M 200.6875 185.644531 C 201.855469 185.644531 202.429688 185.070313 202.429688 183.933594 C 202.429688 182.789063 201.875 182.21875 200.769531 182.21875 C 200.246094 182.21875 199.820313 182.382813 199.480469 182.691406 C 199.132813 183.015625 198.972656 183.40625 198.972656 183.882813 C 198.972656 184.339844 199.132813 184.746094 199.480469 185.105469 C 199.820313 185.464844 200.226563 185.644531 200.6875 185.644531 Z M 256.769531 186.289063 C 257.910156 186.289063 258.488281 185.714844 258.488281 184.570313 C 258.488281 183.40625 257.933594 182.816406 256.808594 182.816406 C 255.695313 182.816406 255.144531 183.390625 255.144531 184.535156 C 255.144531 184.988281 255.308594 185.390625 255.609375 185.761719 C 255.917969 186.105469 256.328125 186.289063 256.769531 186.289063 Z M 226.167969 186.152344 C 226.664063 186.152344 227.078125 185.988281 227.410156 185.644531 C 227.75 185.296875 227.929688 184.902344 227.929688 184.445313 C 227.929688 183.296875 227.351563 182.734375 226.167969 182.734375 C 225.0625 182.734375 224.496094 183.289063 224.496094 184.410156 C 224.496094 184.890625 224.660156 185.296875 224.984375 185.644531 C 225.28125 185.988281 225.691406 186.152344 226.167969 186.152344 Z M 234.855469 175.101563 C 234.585938 175.390625 234.4375 175.710938 234.4375 176.09375 C 234.4375 176.183594 234.476563 176.332031 234.558594 176.570313 C 234.625 176.792969 234.664063 176.96875 234.664063 177.074219 L 233.851563 177.074219 L 233.851563 178.101563 L 237.613281 178.101563 C 237.707031 177.984375 237.761719 177.898438 237.792969 177.808594 L 237.792969 177.074219 L 237.613281 177.074219 C 236.160156 177.039063 235.429688 176.816406 235.429688 176.394531 C 235.429688 175.878906 235.921875 175.617188 236.886719 175.617188 L 237.792969 175.617188 L 237.792969 174.683594 L 235.816406 174.683594 C 235.4375 174.683594 235.109375 174.820313 234.855469 175.101563 Z M 252.410156 186.199219 C 253.539063 186.199219 254.121094 185.644531 254.121094 184.535156 C 254.121094 184.039063 253.957031 183.625 253.609375 183.261719 C 253.261719 182.90625 252.867188 182.734375 252.410156 182.734375 C 251.265625 182.734375 250.683594 183.320313 250.683594 184.488281 C 250.683594 185.628906 251.265625 186.199219 252.410156 186.199219 Z M 89.066406 186.289063 C 90.203125 186.289063 90.777344 185.714844 90.777344 184.570313 C 90.777344 183.40625 90.226563 182.816406 89.109375 182.816406 C 87.992188 182.816406 87.425781 183.390625 87.425781 184.535156 C 87.425781 184.988281 87.589844 185.390625 87.902344 185.761719 C 88.214844 186.105469 88.609375 186.289063 89.066406 186.289063 Z M 277.644531 186.152344 C 278.117188 186.152344 278.535156 185.988281 278.882813 185.644531 C 279.21875 185.296875 279.402344 184.902344 279.402344 184.445313 C 279.402344 183.296875 278.800781 182.734375 277.644531 182.734375 C 276.527344 182.734375 275.972656 183.289063 275.972656 184.410156 C 275.972656 184.890625 276.117188 185.296875 276.441406 185.644531 C 276.742188 185.988281 277.148438 186.152344 277.644531 186.152344 Z M 84.691406 186.199219 C 85.835938 186.199219 86.402344 185.644531 86.402344 184.535156 C 86.402344 184.039063 86.230469 183.625 85.894531 183.261719 C 85.535156 182.90625 85.136719 182.734375 84.691406 182.734375 C 83.554688 182.734375 82.972656 183.320313 82.972656 184.488281 C 82.972656 185.628906 83.554688 186.199219 84.691406 186.199219 Z M 32.984375 185.644531 C 34.144531 185.644531 34.730469 185.070313 34.730469 183.933594 C 34.730469 182.789063 34.183594 182.21875 33.054688 182.21875 C 32.550781 182.21875 32.117188 182.382813 31.769531 182.691406 C 31.433594 183.015625 31.257813 183.40625 31.257813 183.882813 C 31.257813 184.339844 31.433594 184.746094 31.769531 185.105469 C 32.117188 185.464844 32.523438 185.644531 32.984375 185.644531 Z M 58.464844 186.152344 C 58.949219 186.152344 59.359375 185.988281 59.707031 185.644531 C 60.050781 185.296875 60.214844 184.902344 60.214844 184.445313 C 60.214844 183.296875 59.648438 182.734375 58.464844 182.734375 C 57.363281 182.734375 56.792969 183.289063 56.792969 184.410156 C 56.792969 184.890625 56.945313 185.296875 57.261719 185.644531 C 57.582031 185.988281 57.984375 186.152344 58.464844 186.152344 "/>
</g>
<path style="fill:none;stroke-width:35.6958;stroke-linecap:round;stroke-linejoin:round;stroke:rgb(41.19873%,68.199158%,26.699829%);stroke-opacity:1;stroke-miterlimit:4;" d="M 17.851563 389.764062 L 3279.804688 389.764062 " transform="matrix(0.1,0,0,-0.1,0,208.91)"/>
</g>
</svg>
